Coordinates
version=1
nRows=14
nColumns=40
inDegrees=yes

Units are S.I. units (second, meters, Newtons, ...)
If the header above contains a line with 'inDegrees', this indicates whether rotational values are in degrees (yes) or radians (no).

endheader
time	pelvis_tilt	pelvis_list	pelvis_rotation	pelvis_tx	pelvis_ty	pelvis_tz	hip_flexion_r	hip_adduction_r	hip_rotation_r	knee_angle_r	knee_angle_r_beta	ankle_angle_r	subtalar_angle_r	mtp_angle_r	hip_flexion_l	hip_adduction_l	hip_rotation_l	knee_angle_l	knee_angle_l_beta	ankle_angle_l	subtalar_angle_l	mtp_angle_l	lumbar_extension	lumbar_bending	lumbar_rotation	arm_flex_r	arm_add_r	arm_rot_r	elbow_flex_r	pro_sup_r	wrist_flex_r	wrist_dev_r	arm_flex_l	arm_add_l	arm_rot_l	elbow_flex_l	pro_sup_l	wrist_flex_l	wrist_dev_l
      0.00000000	     16.18401380	      3.95296298	      2.82087397	      0.05251967	      0.95228833	     -0.33089957	     11.35236900	     -4.90521297	     -8.11366516	     11.11978655	      0.19407689	    -14.01162577	      0.00000000	      0.00000000	    -29.44129520	      5.03330043	      2.36589344	     12.39954222	      0.21641284	     -1.36154811	      0.00000000	      0.00000000	    -31.85951777	     -2.20601541	     -9.30823353	      1.62239528	    -14.65071554	      7.03663240	     44.43842769	     73.43832004	      0.00000000	      0.00000000	     12.94573532	    -27.79519009	     26.58591817	     53.96616755	     73.74655318	      0.00000000	      0.00000000
      0.00400000	     16.00449632	      4.00624988	      2.84436159	      0.05757002	      0.95094679	     -0.33061273	     11.88069740	     -4.91147931	     -8.07771638	     10.92709018	      0.19071370	    -14.04214833	      0.00000000	      0.00000000	    -29.46858942	      5.02101974	      2.39467153	     12.61999255	      0.22026042	     -1.37430694	      0.00000000	      0.00000000	    -31.74360971	     -2.23398114	     -9.38299798	      1.61960278	    -14.59246762	      7.01385886	     44.46714842	     73.44430918	      0.00000000	      0.00000000	     13.10772087	    -27.80492282	     26.50007036	     53.98088508	     73.74928793	      0.00000000	      0.00000000
      0.00800000	     15.79581334	      4.08770211	      2.86548418	      0.06303722	      0.94946174	     -0.33037641	     12.34940319	     -4.90568845	     -7.99446744	     10.69823065	      0.18671935	    -14.05634505	      0.00000000	      0.00000000	    -29.47310709	      5.02970898	      2.47288835	     12.90066739	      0.22515912	     -1.35430299	      0.00000000	      0.00000000	    -31.52372392	     -2.29425989	     -9.46129219	      1.54513593	    -14.54683174	      6.94596578	     44.45961322	     73.44478673	      0.00000000	      0.00000000	     13.18154353	    -27.80307691	     26.44194028	     53.97390746	     73.75523831	      0.00000000	      0.00000000
      0.01200000	     15.64690534	      4.19299830	      3.02053433	      0.06848103	      0.94824400	     -0.33019629	     12.55094971	     -4.94781140	     -7.57978121	     10.15417699	      0.17722382	    -14.20875412	      0.00000000	      0.00000000	    -29.46454648	      5.00234643	      2.76294596	     13.38385647	      0.23359236	     -0.96550376	      0.00000000	      0.00000000	    -31.39777193	     -2.31102470	     -9.63036353	      1.42812338	    -14.38545660	      6.49478725	     44.50009632	     73.42079852	      0.00000000	      0.00000000	     13.30543724	    -27.78511905	     26.37117154	     53.92148085	     73.82825823	      0.00000000	      0.00000000
      0.01600000	     15.49912757	      4.23695759	      3.02887372	      0.07377992	      0.94692936	     -0.33010134	     12.95313877	     -4.91946628	     -7.56890716	     10.01542887	      0.17480221	    -14.16688218	      0.00000000	      0.00000000	    -29.52436285	      4.97067966	      2.82380561	     13.60731872	      0.23749251	     -1.03337129	      0.00000000	      0.00000000	    -31.27292139	     -2.31971483	     -9.65486906	      1.42991252	    -14.40117692	      6.47238125	     44.48899970	     73.41547444	      0.00000000	      0.00000000	     13.43630086	    -27.76965083	     26.32773739	     53.93927934	     73.83496456	      0.00000000	      0.00000000
      0.02000000	     15.32687814	      4.28216188	      3.06674779	      0.07932237	      0.94565912	     -0.32995723	     13.34320372	     -4.91163551	     -7.45329005	      9.93225965	      0.17335063	    -14.16767558	      0.00000000	      0.00000000	    -29.52697586	      4.93993517	      2.94914939	     13.97985700	      0.24399453	     -1.10437400	      0.00000000	      0.00000000	    -31.08922523	     -2.32556633	     -9.70655905	      1.35844079	    -14.35413781	      6.41903917	     44.47194383	     73.40243727	      0.00000000	      0.00000000	     13.50821050	    -27.70606351	     26.28170351	     53.91559998	     73.84331597	      0.00000000	      0.00000000
      0.02400000	     15.28156417	      4.43359287	      3.10152347	      0.08450189	      0.94453401	     -0.32987275	     13.60573557	     -5.02300923	     -7.14773023	      9.92569232	      0.17323601	    -14.08249597	      0.00000000	      0.00000000	    -29.53079449	      5.00635457	      3.07190186	     14.61727856	      0.25511964	     -0.87044209	      0.00000000	      0.00000000	    -31.10693046	     -2.41676238	     -9.79309006	      1.31973257	    -14.25408420	      6.07373717	     44.51460337	     73.35351928	      0.00000000	      0.00000000	     13.68803218	    -27.64239361	     26.17128484	     53.79146788	     73.90668412	      0.00000000	      0.00000000
      0.02800000	     15.11693573	      4.47002314	      3.20911065	      0.09043421	      0.94328115	     -0.32971107	     13.91426620	     -5.02433021	     -7.04379755	      9.91593678	      0.17306575	    -14.08730138	      0.00000000	      0.00000000	    -29.57076133	      4.91833581	      3.16615757	     14.92301090	      0.26045567	     -0.96423467	      0.00000000	      0.00000000	    -30.90400875	     -2.39952683	     -9.86991187	      1.17166308	    -14.20645844	      6.05581428	     44.51584266	     73.35017641	      0.00000000	      0.00000000	     13.71896172	    -27.60373734	     26.15002425	     53.78448604	     73.91636230	      0.00000000	      0.00000000
      0.03200000	     14.96649185	      4.50404637	      3.32278993	      0.09630701	      0.94207978	     -0.32951555	     14.21431303	     -5.02272658	     -6.93480384	      9.96511805	      0.17392412	    -14.06413643	      0.00000000	      0.00000000	    -29.58474901	      4.83227664	      3.30828301	     15.30161291	      0.26706353	     -1.08143310	      0.00000000	      0.00000000	    -30.71740449	     -2.36633594	     -9.98892920	      1.07766334	    -14.14574055	      5.94235898	     44.53404650	     73.32896362	      0.00000000	      0.00000000	     13.72899187	    -27.57122389	     26.08404209	     53.72295430	     73.92235974	      0.00000000	      0.00000000
      0.03600000	     14.98432125	      4.65381716	      3.52648819	      0.10157854	      0.94106192	     -0.32969038	     14.50462205	     -5.22734510	     -6.99292733	     10.51370472	      0.18349876	    -13.61569601	      0.00000000	      0.00000000	    -29.56184826	      4.80837182	      3.39108400	     16.11234784	      0.28121352	     -0.88377665	      0.00000000	      0.00000000	    -30.82901689	     -2.36006573	    -10.13158859	      0.91140676	    -14.04682361	      5.41792425	     44.86287907	     73.23023309	      0.00000000	      0.00000000	     13.97552500	    -27.50187319	     26.02312875	     53.62481862	     74.09434318	      0.00000000	      0.00000000
      0.04000000	     14.84813777	      4.67796985	      3.59889314	      0.10748422	      0.93994587	     -0.32956978	     14.76670060	     -5.22880663	     -6.78569976	     10.65110345	      0.18589682	    -13.70754076	      0.00000000	      0.00000000	    -29.60667126	      4.72181879	      3.60205800	     16.46547449	      0.28737674	     -1.06116130	      0.00000000	      0.00000000	    -30.64290362	     -2.33055565	    -10.17672524	      0.79992597	    -14.01058904	      5.34157124	     44.85113190	     73.21243078	      0.00000000	      0.00000000	     13.93136762	    -27.46250063	     25.99065066	     53.63270339	     74.09281502	      0.00000000	      0.00000000
      0.04400000	     14.80595782	      4.89044884	      3.66481347	      0.11285039	      0.93892002	     -0.32974868	     15.20122538	     -5.51298788	     -6.75124072	     11.39581759	      0.19889454	    -13.54771220	      0.00000000	      0.00000000	    -29.59790890	      4.85334498	      3.82504829	     17.12757374	      0.29893255	     -1.14634568	      0.00000000	      0.00000000	    -30.68577813	     -2.43479985	    -10.32339580	      0.72723946	    -13.93016716	      4.99216182	     45.08202715	     73.12312003	      0.00000000	      0.00000000	     13.99982923	    -27.39042751	     25.78518490	     53.62506088	     74.08595074	      0.00000000	      0.00000000
      0.04800000	     14.71661328	      4.93300621	      3.79305644	      0.11872291	      0.93792832	     -0.32974849	     15.44639996	     -5.56393039	     -6.49020045	     11.78076757	      0.20561318	    -13.52393068	      0.00000000	      0.00000000	    -29.61237576	      4.75778521	      4.08093537	     17.60865140	      0.30732894	     -1.40146448	      0.00000000	      0.00000000	    -30.58930849	     -2.36644194	    -10.42382401	      0.63795629	    -13.90203633	      4.84834020	     45.13294171	     73.04288341	      0.00000000	      0.00000000	     14.00976721	    -27.30524647	     25.61668246	     53.53744093	     74.07554777	      0.00000000	      0.00000000
      0.05200000	     14.55092152	      4.94902585	      3.90201347	      0.12515738	      0.93684030	     -0.32962920	     15.64937477	     -5.55857474	     -6.32642246	     11.97414958	      0.20898834	    -13.58832113	      0.00000000	      0.00000000	    -29.65566948	      4.64950803	      4.22077814	     17.93817243	      0.31308017	     -1.55798568	      0.00000000	      0.00000000	    -30.31533976	     -2.32178733	    -10.50359470	      0.44507913	    -13.86593743	      4.80341296	     45.14258799	     73.01559098	      0.00000000	      0.00000000	     13.89089823	    -27.23664426	     25.58894982	     53.49591844	     74.07661241	      0.00000000	      0.00000000
